<?xml version="1.0" encoding="UTF-8" standalone="no"?><!DOCTYPE svg PUBLIC "-//W3C//DTD SVG 1.1//EN" "http://www.w3.org/Graphics/SVG/1.1/DTD/svg11.dtd"><!-- Generated by graphviz version 2.40.1 (20161225.0304)
 --><!-- Title: G Pages: 1 --><svg xmlns="http://www.w3.org/2000/svg" xmlns:xlink="http://www.w3.org/1999/xlink" width="4748pt" height="584pt" viewBox="0.00 0.00 4747.99 584.00">
<g id="graph0" class="graph" transform="scale(1 1) rotate(0) translate(4 580)">
<title>G</title>
<polygon fill="#ffffff" stroke="transparent" points="-4,4 -4,-580 4743.9855,-580 4743.9855,4 -4,4"/>
<!-- cx_30 -->
<!-- ocx_45 -->
<!-- ocx_20 -->
<!-- 100111126 -->
<g id="node4" class="node">
<title>100111126</title>
<ellipse fill="none" stroke="#000000" cx="2296.4928" cy="-450" rx="54.4855" ry="18"/>
<text text-anchor="middle" x="2296.4928" y="-445.8" font-family="Times,serif" font-size="14.00" fill="#000000">100111126</text>
</g>
<!-- 100111118 -->
<g id="node6" class="node">
<title>100111118</title>
<ellipse fill="none" stroke="#000000" cx="1126.4928" cy="-342" rx="54.4855" ry="18"/>
<text text-anchor="middle" x="1126.4928" y="-337.8" font-family="Times,serif" font-size="14.00" fill="#000000">100111118</text>
</g>
<!-- 100111126&#45;&gt;100111118 -->
<g id="edge2" class="edge">
<title>100111126-&gt;100111118</title>
<path fill="none" stroke="#000000" d="M2250.2648,-440.4485C2234.2423,-437.3973 2216.1284,-434.2355 2199.4928,-432 1818.6243,-380.8186 1357.5396,-353.8012 1190.6621,-345.1431"/>
<polygon fill="#000000" stroke="#000000" points="1190.7374,-341.6424 1180.5706,-344.6233 1190.3773,-348.6331 1190.7374,-341.6424"/>
</g>
<!-- 100111134 -->
<g id="node7" class="node">
<title>100111134</title>
<ellipse fill="none" stroke="#000000" cx="2296.4928" cy="-342" rx="54.4855" ry="18"/>
<text text-anchor="middle" x="2296.4928" y="-337.8" font-family="Times,serif" font-size="14.00" fill="#000000">100111134</text>
</g>
<!-- 100111126&#45;&gt;100111134 -->
<g id="edge17" class="edge">
<title>100111126-&gt;100111134</title>
<path fill="none" stroke="#000000" d="M2296.4928,-431.6793C2296.4928,-414.821 2296.4928,-389.5651 2296.4928,-370.147"/>
<polygon fill="#000000" stroke="#000000" points="2299.9929,-370.0501 2296.4928,-360.0502 2292.9929,-370.0502 2299.9929,-370.0501"/>
</g>
<!-- 100111151 -->
<g id="node5" class="node">
<title>100111151</title>
<ellipse fill="none" stroke="#000000" cx="3222.4928" cy="-450" rx="54.4855" ry="18"/>
<text text-anchor="middle" x="3222.4928" y="-445.8" font-family="Times,serif" font-size="14.00" fill="#000000">100111151</text>
</g>
<!-- 100111147 -->
<g id="node8" class="node">
<title>100111147</title>
<ellipse fill="none" stroke="#000000" cx="3222.4928" cy="-342" rx="54.4855" ry="18"/>
<text text-anchor="middle" x="3222.4928" y="-337.8" font-family="Times,serif" font-size="14.00" fill="#000000">100111147</text>
</g>
<!-- 100111151&#45;&gt;100111147 -->
<g id="edge33" class="edge">
<title>100111151-&gt;100111147</title>
<path fill="none" stroke="#000000" d="M3222.4928,-431.6793C3222.4928,-414.821 3222.4928,-389.5651 3222.4928,-370.147"/>
<polygon fill="#000000" stroke="#000000" points="3225.9929,-370.0501 3222.4928,-360.0502 3218.9929,-370.0502 3225.9929,-370.0501"/>
</g>
<!-- 100111159 -->
<g id="node9" class="node">
<title>100111159</title>
<ellipse fill="none" stroke="#000000" cx="3807.4928" cy="-342" rx="54.4855" ry="18"/>
<text text-anchor="middle" x="3807.4928" y="-337.8" font-family="Times,serif" font-size="14.00" fill="#000000">100111159</text>
</g>
<!-- 100111151&#45;&gt;100111159 -->
<g id="edge40" class="edge">
<title>100111151-&gt;100111159</title>
<path fill="none" stroke="#000000" d="M3270.3658,-441.1619C3377.115,-421.4543 3634.3004,-373.974 3749.7234,-352.6651"/>
<polygon fill="#000000" stroke="#000000" points="3750.5803,-356.0661 3759.7787,-350.8087 3749.3094,-349.1825 3750.5803,-356.0661"/>
</g>
<!-- 100111114 -->
<g id="node10" class="node">
<title>100111114</title>
<ellipse fill="none" stroke="#000000" cx="542.4928" cy="-234" rx="54.4855" ry="18"/>
<text text-anchor="middle" x="542.4928" y="-229.8" font-family="Times,serif" font-size="14.00" fill="#000000">100111114</text>
</g>
<!-- 100111118&#45;&gt;100111114 -->
<g id="edge3" class="edge">
<title>100111118-&gt;100111114</title>
<path fill="none" stroke="#000000" d="M1078.7016,-333.1619C972.1348,-313.4543 715.3891,-265.974 600.1634,-244.6651"/>
<polygon fill="#000000" stroke="#000000" points="600.595,-241.1857 590.1252,-242.8087 599.322,-248.069 600.595,-241.1857"/>
</g>
<!-- 100111122 -->
<g id="node11" class="node">
<title>100111122</title>
<ellipse fill="none" stroke="#000000" cx="1126.4928" cy="-234" rx="54.4855" ry="18"/>
<text text-anchor="middle" x="1126.4928" y="-229.8" font-family="Times,serif" font-size="14.00" fill="#000000">100111122</text>
</g>
<!-- 100111118&#45;&gt;100111122 -->
<g id="edge10" class="edge">
<title>100111118-&gt;100111122</title>
<path fill="none" stroke="#000000" d="M1126.4928,-323.6793C1126.4928,-306.821 1126.4928,-281.5651 1126.4928,-262.147"/>
<polygon fill="#000000" stroke="#000000" points="1129.9929,-262.0501 1126.4928,-252.0502 1122.9929,-262.0502 1129.9929,-262.0501"/>
</g>
<!-- 100111130 -->
<g id="node12" class="node">
<title>100111130</title>
<ellipse fill="none" stroke="#000000" cx="2101.4928" cy="-234" rx="54.4855" ry="18"/>
<text text-anchor="middle" x="2101.4928" y="-229.8" font-family="Times,serif" font-size="14.00" fill="#000000">100111130</text>
</g>
<!-- 100111134&#45;&gt;100111130 -->
<g id="edge18" class="edge">
<title>100111134-&gt;100111130</title>
<path fill="none" stroke="#000000" d="M2268.554,-326.5262C2234.4777,-307.6532 2176.7472,-275.6794 2138.8713,-254.7019"/>
<polygon fill="#000000" stroke="#000000" points="2140.1398,-251.4036 2129.6961,-249.6203 2136.7482,-257.5271 2140.1398,-251.4036"/>
</g>
<!-- 100111138 -->
<g id="node13" class="node">
<title>100111138</title>
<ellipse fill="none" stroke="#000000" cx="2443.4928" cy="-234" rx="54.4855" ry="18"/>
<text text-anchor="middle" x="2443.4928" y="-229.8" font-family="Times,serif" font-size="14.00" fill="#000000">100111138</text>
</g>
<!-- 100111134&#45;&gt;100111138 -->
<g id="edge25" class="edge">
<title>100111134-&gt;100111138</title>
<path fill="none" stroke="#000000" d="M2319.1394,-325.3617C2344.2466,-306.9155 2384.8821,-277.0609 2412.8276,-256.5295"/>
<polygon fill="#000000" stroke="#000000" points="2415.0751,-259.2214 2421.0617,-250.48 2410.9305,-253.5802 2415.0751,-259.2214"/>
</g>
<!-- 100111145 -->
<g id="node14" class="node">
<title>100111145</title>
<ellipse fill="none" stroke="#000000" cx="3125.4928" cy="-234" rx="54.4855" ry="18"/>
<text text-anchor="middle" x="3125.4928" y="-229.8" font-family="Times,serif" font-size="14.00" fill="#000000">100111145</text>
</g>
<!-- 100111147&#45;&gt;100111145 -->
<g id="edge34" class="edge">
<title>100111147-&gt;100111145</title>
<path fill="none" stroke="#000000" d="M3206.908,-324.6479C3190.928,-306.8558 3165.9215,-279.0134 3147.8373,-258.8784"/>
<polygon fill="#000000" stroke="#000000" points="3150.3248,-256.4101 3141.0388,-251.309 3145.1169,-261.0875 3150.3248,-256.4101"/>
</g>
<!-- 100111149 -->
<g id="node15" class="node">
<title>100111149</title>
<ellipse fill="none" stroke="#000000" cx="3320.4928" cy="-234" rx="54.4855" ry="18"/>
<text text-anchor="middle" x="3320.4928" y="-229.8" font-family="Times,serif" font-size="14.00" fill="#000000">100111149</text>
</g>
<!-- 100111147&#45;&gt;100111149 -->
<g id="edge37" class="edge">
<title>100111147-&gt;100111149</title>
<path fill="none" stroke="#000000" d="M3238.2382,-324.6479C3254.3829,-306.8558 3279.6472,-279.0134 3297.9179,-258.8784"/>
<polygon fill="#000000" stroke="#000000" points="3300.6585,-261.0666 3304.7864,-251.309 3295.4745,-256.3627 3300.6585,-261.0666"/>
</g>
<!-- 100111155 -->
<g id="node16" class="node">
<title>100111155</title>
<ellipse fill="none" stroke="#000000" cx="3807.4928" cy="-234" rx="54.4855" ry="18"/>
<text text-anchor="middle" x="3807.4928" y="-229.8" font-family="Times,serif" font-size="14.00" fill="#000000">100111155</text>
</g>
<!-- 100111159&#45;&gt;100111155 -->
<g id="edge41" class="edge">
<title>100111159-&gt;100111155</title>
<path fill="none" stroke="#000000" d="M3807.4928,-323.6793C3807.4928,-306.821 3807.4928,-281.5651 3807.4928,-262.147"/>
<polygon fill="#000000" stroke="#000000" points="3810.9929,-262.0501 3807.4928,-252.0502 3803.9929,-262.0502 3810.9929,-262.0501"/>
</g>
<!-- 100111163 -->
<g id="node17" class="node">
<title>100111163</title>
<ellipse fill="none" stroke="#000000" cx="4344.4928" cy="-234" rx="54.4855" ry="18"/>
<text text-anchor="middle" x="4344.4928" y="-229.8" font-family="Times,serif" font-size="14.00" fill="#000000">100111163</text>
</g>
<!-- 100111159&#45;&gt;100111163 -->
<g id="edge48" class="edge">
<title>100111159-&gt;100111163</title>
<path fill="none" stroke="#000000" d="M3854.2086,-332.6046C3952.7175,-312.7928 4181.4082,-266.7991 4287.9635,-245.369"/>
<polygon fill="#000000" stroke="#000000" points="4288.772,-248.7766 4297.8856,-243.3735 4287.3918,-241.914 4288.772,-248.7766"/>
</g>
<!-- 100111112 -->
<g id="node19" class="node">
<title>100111112</title>
<ellipse fill="none" stroke="#000000" cx="249.4928" cy="-126" rx="54.4855" ry="18"/>
<text text-anchor="middle" x="249.4928" y="-121.8" font-family="Times,serif" font-size="14.00" fill="#000000">100111112</text>
</g>
<!-- 100111114&#45;&gt;100111112 -->
<g id="edge4" class="edge">
<title>100111114-&gt;100111112</title>
<path fill="none" stroke="#000000" d="M505.9765,-220.5401C452.7555,-200.9228 353.8979,-164.4838 295.6859,-143.0268"/>
<polygon fill="#000000" stroke="#000000" points="296.6012,-139.6341 286.0078,-139.4595 294.1802,-146.2021 296.6012,-139.6341"/>
</g>
<!-- 100111116 -->
<g id="node22" class="node">
<title>100111116</title>
<ellipse fill="none" stroke="#000000" cx="542.4928" cy="-126" rx="54.4855" ry="18"/>
<text text-anchor="middle" x="542.4928" y="-121.8" font-family="Times,serif" font-size="14.00" fill="#000000">100111116</text>
</g>
<!-- 100111114&#45;&gt;100111116 -->
<g id="edge7" class="edge">
<title>100111114-&gt;100111116</title>
<path fill="none" stroke="#000000" d="M542.4928,-215.6793C542.4928,-198.821 542.4928,-173.5651 542.4928,-154.147"/>
<polygon fill="#000000" stroke="#000000" points="545.9929,-154.0501 542.4928,-144.0502 538.9929,-154.0502 545.9929,-154.0501"/>
</g>
<!-- 100111120 -->
<g id="node25" class="node">
<title>100111120</title>
<ellipse fill="none" stroke="#000000" cx="1029.4928" cy="-126" rx="54.4855" ry="18"/>
<text text-anchor="middle" x="1029.4928" y="-121.8" font-family="Times,serif" font-size="14.00" fill="#000000">100111120</text>
</g>
<!-- 100111122&#45;&gt;100111120 -->
<g id="edge11" class="edge">
<title>100111122-&gt;100111120</title>
<path fill="none" stroke="#000000" d="M1110.908,-216.6479C1094.928,-198.8558 1069.9215,-171.0134 1051.8373,-150.8784"/>
<polygon fill="#000000" stroke="#000000" points="1054.3248,-148.4101 1045.0388,-143.309 1049.1169,-153.0875 1054.3248,-148.4101"/>
</g>
<!-- 100111124 -->
<g id="node28" class="node">
<title>100111124</title>
<ellipse fill="none" stroke="#000000" cx="1224.4928" cy="-126" rx="54.4855" ry="18"/>
<text text-anchor="middle" x="1224.4928" y="-121.8" font-family="Times,serif" font-size="14.00" fill="#000000">100111124</text>
</g>
<!-- 100111122&#45;&gt;100111124 -->
<g id="edge14" class="edge">
<title>100111122-&gt;100111124</title>
<path fill="none" stroke="#000000" d="M1142.2382,-216.6479C1158.3829,-198.8558 1183.6472,-171.0134 1201.9179,-150.8784"/>
<polygon fill="#000000" stroke="#000000" points="1204.6585,-153.0666 1208.7864,-143.309 1199.4745,-148.3627 1204.6585,-153.0666"/>
</g>
<!-- 100111128 -->
<g id="node31" class="node">
<title>100111128</title>
<ellipse fill="none" stroke="#000000" cx="1809.4928" cy="-126" rx="54.4855" ry="18"/>
<text text-anchor="middle" x="1809.4928" y="-121.8" font-family="Times,serif" font-size="14.00" fill="#000000">100111128</text>
</g>
<!-- 100111130&#45;&gt;100111128 -->
<g id="edge19" class="edge">
<title>100111130-&gt;100111128</title>
<path fill="none" stroke="#000000" d="M2065.1012,-220.5401C2012.0617,-200.9228 1913.5416,-164.4838 1855.5283,-143.0268"/>
<polygon fill="#000000" stroke="#000000" points="1856.4764,-139.6458 1845.8832,-139.4595 1854.0481,-146.2112 1856.4764,-139.6458"/>
</g>
<!-- 100111132 -->
<g id="node34" class="node">
<title>100111132</title>
<ellipse fill="none" stroke="#000000" cx="2101.4928" cy="-126" rx="54.4855" ry="18"/>
<text text-anchor="middle" x="2101.4928" y="-121.8" font-family="Times,serif" font-size="14.00" fill="#000000">100111132</text>
</g>
<!-- 100111130&#45;&gt;100111132 -->
<g id="edge22" class="edge">
<title>100111130-&gt;100111132</title>
<path fill="none" stroke="#000000" d="M2101.4928,-215.6793C2101.4928,-198.821 2101.4928,-173.5651 2101.4928,-154.147"/>
<polygon fill="#000000" stroke="#000000" points="2104.9929,-154.0501 2101.4928,-144.0502 2097.9929,-154.0502 2104.9929,-154.0501"/>
</g>
<!-- 100111136 -->
<g id="node37" class="node">
<title>100111136</title>
<ellipse fill="none" stroke="#000000" cx="2443.4928" cy="-126" rx="54.4855" ry="18"/>
<text text-anchor="middle" x="2443.4928" y="-121.8" font-family="Times,serif" font-size="14.00" fill="#000000">100111136</text>
</g>
<!-- 100111138&#45;&gt;100111136 -->
<g id="edge26" class="edge">
<title>100111138-&gt;100111136</title>
<path fill="none" stroke="#000000" d="M2443.4928,-215.6793C2443.4928,-198.821 2443.4928,-173.5651 2443.4928,-154.147"/>
<polygon fill="#000000" stroke="#000000" points="2446.9929,-154.0501 2443.4928,-144.0502 2439.9929,-154.0502 2446.9929,-154.0501"/>
</g>
<!-- 100111140 -->
<g id="node40" class="node">
<title>100111140</title>
<ellipse fill="none" stroke="#000000" cx="2735.4928" cy="-126" rx="54.4855" ry="18"/>
<text text-anchor="middle" x="2735.4928" y="-121.8" font-family="Times,serif" font-size="14.00" fill="#000000">100111140</text>
</g>
<!-- 100111138&#45;&gt;100111140 -->
<g id="edge29" class="edge">
<title>100111138-&gt;100111140</title>
<path fill="none" stroke="#000000" d="M2479.8844,-220.5401C2532.9238,-200.9228 2631.444,-164.4838 2689.4572,-143.0268"/>
<polygon fill="#000000" stroke="#000000" points="2690.9374,-146.2112 2699.1023,-139.4595 2688.5091,-139.6458 2690.9374,-146.2112"/>
</g>
<!-- 100111143 -->
<g id="node43" class="node">
<title>100111143</title>
<ellipse fill="none" stroke="#000000" cx="2930.4928" cy="-126" rx="54.4855" ry="18"/>
<text text-anchor="middle" x="2930.4928" y="-121.8" font-family="Times,serif" font-size="14.00" fill="#000000">100111143</text>
</g>
<!-- 100111145&#45;&gt;100111143 -->
<g id="edge35" class="edge">
<title>100111145-&gt;100111143</title>
<path fill="none" stroke="#000000" d="M3097.554,-218.5262C3063.4777,-199.6532 3005.7472,-167.6794 2967.8713,-146.7019"/>
<polygon fill="#000000" stroke="#000000" points="2969.1398,-143.4036 2958.6961,-141.6203 2965.7482,-149.5271 2969.1398,-143.4036"/>
</g>
<!-- 100111146 -->
<g id="node44" class="node">
<title>100111146</title>
<ellipse fill="none" stroke="#000000" cx="3125.4928" cy="-126" rx="54.4855" ry="18"/>
<text text-anchor="middle" x="3125.4928" y="-121.8" font-family="Times,serif" font-size="14.00" fill="#000000">100111146</text>
</g>
<!-- 100111145&#45;&gt;100111146 -->
<g id="edge36" class="edge">
<title>100111145-&gt;100111146</title>
<path fill="none" stroke="#000000" d="M3125.4928,-215.6793C3125.4928,-198.821 3125.4928,-173.5651 3125.4928,-154.147"/>
<polygon fill="#000000" stroke="#000000" points="3128.9929,-154.0501 3125.4928,-144.0502 3121.9929,-154.0502 3128.9929,-154.0501"/>
</g>
<!-- 100111148 -->
<g id="node45" class="node">
<title>100111148</title>
<ellipse fill="none" stroke="#000000" cx="3320.4928" cy="-126" rx="54.4855" ry="18"/>
<text text-anchor="middle" x="3320.4928" y="-121.8" font-family="Times,serif" font-size="14.00" fill="#000000">100111148</text>
</g>
<!-- 100111149&#45;&gt;100111148 -->
<g id="edge38" class="edge">
<title>100111149-&gt;100111148</title>
<path fill="none" stroke="#000000" d="M3320.4928,-215.6793C3320.4928,-198.821 3320.4928,-173.5651 3320.4928,-154.147"/>
<polygon fill="#000000" stroke="#000000" points="3323.9929,-154.0501 3320.4928,-144.0502 3316.9929,-154.0502 3323.9929,-154.0501"/>
</g>
<!-- 100111150 -->
<g id="node46" class="node">
<title>100111150</title>
<ellipse fill="none" stroke="#000000" cx="3515.4928" cy="-126" rx="54.4855" ry="18"/>
<text text-anchor="middle" x="3515.4928" y="-121.8" font-family="Times,serif" font-size="14.00" fill="#000000">100111150</text>
</g>
<!-- 100111149&#45;&gt;100111150 -->
<g id="edge39" class="edge">
<title>100111149-&gt;100111150</title>
<path fill="none" stroke="#000000" d="M3348.4315,-218.5262C3382.5078,-199.6532 3440.2383,-167.6794 3478.1142,-146.7019"/>
<polygon fill="#000000" stroke="#000000" points="3480.2373,-149.5271 3487.2895,-141.6203 3476.8458,-143.4036 3480.2373,-149.5271"/>
</g>
<!-- 100111153 -->
<g id="node47" class="node">
<title>100111153</title>
<ellipse fill="none" stroke="#000000" cx="3710.4928" cy="-126" rx="54.4855" ry="18"/>
<text text-anchor="middle" x="3710.4928" y="-121.8" font-family="Times,serif" font-size="14.00" fill="#000000">100111153</text>
</g>
<!-- 100111155&#45;&gt;100111153 -->
<g id="edge42" class="edge">
<title>100111155-&gt;100111153</title>
<path fill="none" stroke="#000000" d="M3791.908,-216.6479C3775.928,-198.8558 3750.9215,-171.0134 3732.8373,-150.8784"/>
<polygon fill="#000000" stroke="#000000" points="3735.3248,-148.4101 3726.0388,-143.309 3730.1169,-153.0875 3735.3248,-148.4101"/>
</g>
<!-- 100111157 -->
<g id="node50" class="node">
<title>100111157</title>
<ellipse fill="none" stroke="#000000" cx="3905.4928" cy="-126" rx="54.4855" ry="18"/>
<text text-anchor="middle" x="3905.4928" y="-121.8" font-family="Times,serif" font-size="14.00" fill="#000000">100111157</text>
</g>
<!-- 100111155&#45;&gt;100111157 -->
<g id="edge45" class="edge">
<title>100111155-&gt;100111157</title>
<path fill="none" stroke="#000000" d="M3823.2382,-216.6479C3839.3829,-198.8558 3864.6472,-171.0134 3882.9179,-150.8784"/>
<polygon fill="#000000" stroke="#000000" points="3885.6585,-153.0666 3889.7864,-143.309 3880.4745,-148.3627 3885.6585,-153.0666"/>
</g>
<!-- 100111161 -->
<g id="node53" class="node">
<title>100111161</title>
<ellipse fill="none" stroke="#000000" cx="4344.4928" cy="-126" rx="54.4855" ry="18"/>
<text text-anchor="middle" x="4344.4928" y="-121.8" font-family="Times,serif" font-size="14.00" fill="#000000">100111161</text>
</g>
<!-- 100111163&#45;&gt;100111161 -->
<g id="edge49" class="edge">
<title>100111163-&gt;100111161</title>
<path fill="none" stroke="#000000" d="M4344.4928,-215.6793C4344.4928,-198.821 4344.4928,-173.5651 4344.4928,-154.147"/>
<polygon fill="#000000" stroke="#000000" points="4347.9929,-154.0501 4344.4928,-144.0502 4340.9929,-154.0502 4347.9929,-154.0501"/>
</g>
<!-- 100111164 -->
<g id="node56" class="node">
<title>100111164</title>
<ellipse fill="none" stroke="#000000" cx="4636.4928" cy="-126" rx="54.4855" ry="18"/>
<text text-anchor="middle" x="4636.4928" y="-121.8" font-family="Times,serif" font-size="14.00" fill="#000000">100111164</text>
</g>
<!-- 100111163&#45;&gt;100111164 -->
<g id="edge52" class="edge">
<title>100111163-&gt;100111164</title>
<path fill="none" stroke="#000000" d="M4380.8844,-220.5401C4433.9238,-200.9228 4532.444,-164.4838 4590.4572,-143.0268"/>
<polygon fill="#000000" stroke="#000000" points="4591.9374,-146.2112 4600.1023,-139.4595 4589.5091,-139.6458 4591.9374,-146.2112"/>
</g>
<!-- 100111142 -->
<g id="node18" class="node">
<title>100111142</title>
<ellipse fill="none" stroke="#000000" cx="2783.4928" cy="-558" rx="54.4855" ry="18"/>
<text text-anchor="middle" x="2783.4928" y="-553.8" font-family="Times,serif" font-size="14.00" fill="#000000">100111142</text>
</g>
<!-- 100111142&#45;&gt;100111126 -->
<g id="edge1" class="edge">
<title>100111142-&gt;100111126</title>
<path fill="none" stroke="#000000" d="M2738.1143,-547.9366C2648.4876,-528.0605 2449.0388,-483.8295 2351.8574,-462.278"/>
<polygon fill="#000000" stroke="#000000" points="2352.4541,-458.8253 2341.9335,-460.0772 2350.9385,-465.6593 2352.4541,-458.8253"/>
</g>
<!-- 100111142&#45;&gt;100111151 -->
<g id="edge32" class="edge">
<title>100111142-&gt;100111151</title>
<path fill="none" stroke="#000000" d="M2827.5957,-547.1501C2908.7234,-527.1915 3081.3282,-484.7284 3168.9971,-463.1607"/>
<polygon fill="#000000" stroke="#000000" points="3169.8703,-466.5503 3178.7447,-460.7626 3168.198,-459.753 3169.8703,-466.5503"/>
</g>
<!-- 100111111 -->
<g id="node20" class="node">
<title>100111111</title>
<ellipse fill="none" stroke="#000000" cx="54.4928" cy="-18" rx="54.4855" ry="18"/>
<text text-anchor="middle" x="54.4928" y="-13.8" font-family="Times,serif" font-size="14.00" fill="#000000">100111111</text>
</g>
<!-- 100111112&#45;&gt;100111111 -->
<g id="edge5" class="edge">
<title>100111112-&gt;100111111</title>
<path fill="none" stroke="#000000" d="M221.554,-110.5262C187.4777,-91.6532 129.7472,-59.6794 91.8713,-38.7019"/>
<polygon fill="#000000" stroke="#000000" points="93.1398,-35.4036 82.6961,-33.6203 89.7482,-41.5271 93.1398,-35.4036"/>
</g>
<!-- 100111113 -->
<g id="node21" class="node">
<title>100111113</title>
<ellipse fill="none" stroke="#000000" cx="249.4928" cy="-18" rx="54.4855" ry="18"/>
<text text-anchor="middle" x="249.4928" y="-13.8" font-family="Times,serif" font-size="14.00" fill="#000000">100111113</text>
</g>
<!-- 100111112&#45;&gt;100111113 -->
<g id="edge6" class="edge">
<title>100111112-&gt;100111113</title>
<path fill="none" stroke="#000000" d="M249.4928,-107.6793C249.4928,-90.821 249.4928,-65.5651 249.4928,-46.147"/>
<polygon fill="#000000" stroke="#000000" points="252.9929,-46.0501 249.4928,-36.0502 245.9929,-46.0502 252.9929,-46.0501"/>
</g>
<!-- 100111115 -->
<g id="node23" class="node">
<title>100111115</title>
<ellipse fill="none" stroke="#000000" cx="444.4928" cy="-18" rx="54.4855" ry="18"/>
<text text-anchor="middle" x="444.4928" y="-13.8" font-family="Times,serif" font-size="14.00" fill="#000000">100111115</text>
</g>
<!-- 100111116&#45;&gt;100111115 -->
<g id="edge8" class="edge">
<title>100111116-&gt;100111115</title>
<path fill="none" stroke="#000000" d="M526.7474,-108.6479C510.6026,-90.8558 485.3383,-63.0134 467.0676,-42.8784"/>
<polygon fill="#000000" stroke="#000000" points="469.511,-40.3627 460.1991,-35.309 464.327,-45.0666 469.511,-40.3627"/>
</g>
<!-- 100111117 -->
<g id="node24" class="node">
<title>100111117</title>
<ellipse fill="none" stroke="#000000" cx="639.4928" cy="-18" rx="54.4855" ry="18"/>
<text text-anchor="middle" x="639.4928" y="-13.8" font-family="Times,serif" font-size="14.00" fill="#000000">100111117</text>
</g>
<!-- 100111116&#45;&gt;100111117 -->
<g id="edge9" class="edge">
<title>100111116-&gt;100111117</title>
<path fill="none" stroke="#000000" d="M558.0775,-108.6479C574.0575,-90.8558 599.064,-63.0134 617.1483,-42.8784"/>
<polygon fill="#000000" stroke="#000000" points="619.8686,-45.0875 623.9467,-35.309 614.6607,-40.4101 619.8686,-45.0875"/>
</g>
<!-- 100111119 -->
<g id="node26" class="node">
<title>100111119</title>
<ellipse fill="none" stroke="#000000" cx="834.4928" cy="-18" rx="54.4855" ry="18"/>
<text text-anchor="middle" x="834.4928" y="-13.8" font-family="Times,serif" font-size="14.00" fill="#000000">100111119</text>
</g>
<!-- 100111120&#45;&gt;100111119 -->
<g id="edge12" class="edge">
<title>100111120-&gt;100111119</title>
<path fill="none" stroke="#000000" d="M1001.554,-110.5262C967.4777,-91.6532 909.7472,-59.6794 871.8713,-38.7019"/>
<polygon fill="#000000" stroke="#000000" points="873.1398,-35.4036 862.6961,-33.6203 869.7482,-41.5271 873.1398,-35.4036"/>
</g>
<!-- 100111121 -->
<g id="node27" class="node">
<title>100111121</title>
<ellipse fill="none" stroke="#000000" cx="1029.4928" cy="-18" rx="54.4855" ry="18"/>
<text text-anchor="middle" x="1029.4928" y="-13.8" font-family="Times,serif" font-size="14.00" fill="#000000">100111121</text>
</g>
<!-- 100111120&#45;&gt;100111121 -->
<g id="edge13" class="edge">
<title>100111120-&gt;100111121</title>
<path fill="none" stroke="#000000" d="M1029.4928,-107.6793C1029.4928,-90.821 1029.4928,-65.5651 1029.4928,-46.147"/>
<polygon fill="#000000" stroke="#000000" points="1032.9929,-46.0501 1029.4928,-36.0502 1025.9929,-46.0502 1032.9929,-46.0501"/>
</g>
<!-- 100111123 -->
<g id="node29" class="node">
<title>100111123</title>
<ellipse fill="none" stroke="#000000" cx="1224.4928" cy="-18" rx="54.4855" ry="18"/>
<text text-anchor="middle" x="1224.4928" y="-13.8" font-family="Times,serif" font-size="14.00" fill="#000000">100111123</text>
</g>
<!-- 100111124&#45;&gt;100111123 -->
<g id="edge15" class="edge">
<title>100111124-&gt;100111123</title>
<path fill="none" stroke="#000000" d="M1224.4928,-107.6793C1224.4928,-90.821 1224.4928,-65.5651 1224.4928,-46.147"/>
<polygon fill="#000000" stroke="#000000" points="1227.9929,-46.0501 1224.4928,-36.0502 1220.9929,-46.0502 1227.9929,-46.0501"/>
</g>
<!-- 100111125 -->
<g id="node30" class="node">
<title>100111125</title>
<ellipse fill="none" stroke="#000000" cx="1419.4928" cy="-18" rx="54.4855" ry="18"/>
<text text-anchor="middle" x="1419.4928" y="-13.8" font-family="Times,serif" font-size="14.00" fill="#000000">100111125</text>
</g>
<!-- 100111124&#45;&gt;100111125 -->
<g id="edge16" class="edge">
<title>100111124-&gt;100111125</title>
<path fill="none" stroke="#000000" d="M1252.4315,-110.5262C1286.5078,-91.6532 1344.2383,-59.6794 1382.1142,-38.7019"/>
<polygon fill="#000000" stroke="#000000" points="1384.2373,-41.5271 1391.2895,-33.6203 1380.8458,-35.4036 1384.2373,-41.5271"/>
</g>
<!-- 100111127 -->
<g id="node32" class="node">
<title>100111127</title>
<ellipse fill="none" stroke="#000000" cx="1614.4928" cy="-18" rx="54.4855" ry="18"/>
<text text-anchor="middle" x="1614.4928" y="-13.8" font-family="Times,serif" font-size="14.00" fill="#000000">100111127</text>
</g>
<!-- 100111128&#45;&gt;100111127 -->
<g id="edge20" class="edge">
<title>100111128-&gt;100111127</title>
<path fill="none" stroke="#000000" d="M1781.554,-110.5262C1747.4777,-91.6532 1689.7472,-59.6794 1651.8713,-38.7019"/>
<polygon fill="#000000" stroke="#000000" points="1653.1398,-35.4036 1642.6961,-33.6203 1649.7482,-41.5271 1653.1398,-35.4036"/>
</g>
<!-- 100111129 -->
<g id="node33" class="node">
<title>100111129</title>
<ellipse fill="none" stroke="#000000" cx="1809.4928" cy="-18" rx="54.4855" ry="18"/>
<text text-anchor="middle" x="1809.4928" y="-13.8" font-family="Times,serif" font-size="14.00" fill="#000000">100111129</text>
</g>
<!-- 100111128&#45;&gt;100111129 -->
<g id="edge21" class="edge">
<title>100111128-&gt;100111129</title>
<path fill="none" stroke="#000000" d="M1809.4928,-107.6793C1809.4928,-90.821 1809.4928,-65.5651 1809.4928,-46.147"/>
<polygon fill="#000000" stroke="#000000" points="1812.9929,-46.0501 1809.4928,-36.0502 1805.9929,-46.0502 1812.9929,-46.0501"/>
</g>
<!-- 100111131 -->
<g id="node35" class="node">
<title>100111131</title>
<ellipse fill="none" stroke="#000000" cx="2004.4928" cy="-18" rx="54.4855" ry="18"/>
<text text-anchor="middle" x="2004.4928" y="-13.8" font-family="Times,serif" font-size="14.00" fill="#000000">100111131</text>
</g>
<!-- 100111132&#45;&gt;100111131 -->
<g id="edge23" class="edge">
<title>100111132-&gt;100111131</title>
<path fill="none" stroke="#000000" d="M2085.908,-108.6479C2069.928,-90.8558 2044.9215,-63.0134 2026.8373,-42.8784"/>
<polygon fill="#000000" stroke="#000000" points="2029.3248,-40.4101 2020.0388,-35.309 2024.1169,-45.0875 2029.3248,-40.4101"/>
</g>
<!-- 100111133 -->
<g id="node36" class="node">
<title>100111133</title>
<ellipse fill="none" stroke="#000000" cx="2199.4928" cy="-18" rx="54.4855" ry="18"/>
<text text-anchor="middle" x="2199.4928" y="-13.8" font-family="Times,serif" font-size="14.00" fill="#000000">100111133</text>
</g>
<!-- 100111132&#45;&gt;100111133 -->
<g id="edge24" class="edge">
<title>100111132-&gt;100111133</title>
<path fill="none" stroke="#000000" d="M2117.2382,-108.6479C2133.3829,-90.8558 2158.6472,-63.0134 2176.9179,-42.8784"/>
<polygon fill="#000000" stroke="#000000" points="2179.6585,-45.0666 2183.7864,-35.309 2174.4745,-40.3627 2179.6585,-45.0666"/>
</g>
<!-- 100111135 -->
<g id="node38" class="node">
<title>100111135</title>
<ellipse fill="none" stroke="#000000" cx="2394.4928" cy="-18" rx="54.4855" ry="18"/>
<text text-anchor="middle" x="2394.4928" y="-13.8" font-family="Times,serif" font-size="14.00" fill="#000000">100111135</text>
</g>
<!-- 100111136&#45;&gt;100111135 -->
<g id="edge27" class="edge">
<title>100111136-&gt;100111135</title>
<path fill="none" stroke="#000000" d="M2435.4014,-108.166C2427.6347,-91.0475 2415.7963,-64.9548 2406.8496,-45.2355"/>
<polygon fill="#000000" stroke="#000000" points="2409.9152,-43.521 2402.5961,-35.8605 2403.5406,-46.4132 2409.9152,-43.521"/>
</g>
<!-- 100111137 -->
<g id="node39" class="node">
<title>100111137</title>
<ellipse fill="none" stroke="#000000" cx="2589.4928" cy="-18" rx="54.4855" ry="18"/>
<text text-anchor="middle" x="2589.4928" y="-13.8" font-family="Times,serif" font-size="14.00" fill="#000000">100111137</text>
</g>
<!-- 100111136&#45;&gt;100111137 -->
<g id="edge28" class="edge">
<title>100111136-&gt;100111137</title>
<path fill="none" stroke="#000000" d="M2465.9853,-109.3617C2490.9217,-90.9155 2531.2808,-61.0609 2559.0362,-40.5295"/>
<polygon fill="#000000" stroke="#000000" points="2561.2562,-43.2409 2567.2143,-34.48 2557.0933,-37.6132 2561.2562,-43.2409"/>
</g>
<!-- 100111139 -->
<g id="node41" class="node">
<title>100111139</title>
<ellipse fill="none" stroke="#000000" cx="2784.4928" cy="-18" rx="54.4855" ry="18"/>
<text text-anchor="middle" x="2784.4928" y="-13.8" font-family="Times,serif" font-size="14.00" fill="#000000">100111139</text>
</g>
<!-- 100111140&#45;&gt;100111139 -->
<g id="edge30" class="edge">
<title>100111140-&gt;100111139</title>
<path fill="none" stroke="#000000" d="M2743.5841,-108.166C2751.3508,-91.0475 2763.1892,-64.9548 2772.1359,-45.2355"/>
<polygon fill="#000000" stroke="#000000" points="2775.4449,-46.4132 2776.3894,-35.8605 2769.0704,-43.521 2775.4449,-46.4132"/>
</g>
<!-- 100111141 -->
<g id="node42" class="node">
<title>100111141</title>
<ellipse fill="none" stroke="#000000" cx="2979.4928" cy="-18" rx="54.4855" ry="18"/>
<text text-anchor="middle" x="2979.4928" y="-13.8" font-family="Times,serif" font-size="14.00" fill="#000000">100111141</text>
</g>
<!-- 100111140&#45;&gt;100111141 -->
<g id="edge31" class="edge">
<title>100111140-&gt;100111141</title>
<path fill="none" stroke="#000000" d="M2768.1465,-111.5467C2811.8522,-92.2016 2889.4223,-57.8672 2937.4499,-36.6091"/>
<polygon fill="#000000" stroke="#000000" points="2938.9151,-39.7882 2946.6428,-32.5402 2936.0818,-33.3872 2938.9151,-39.7882"/>
</g>
<!-- 100111152 -->
<g id="node48" class="node">
<title>100111152</title>
<ellipse fill="none" stroke="#000000" cx="3515.4928" cy="-18" rx="54.4855" ry="18"/>
<text text-anchor="middle" x="3515.4928" y="-13.8" font-family="Times,serif" font-size="14.00" fill="#000000">100111152</text>
</g>
<!-- 100111153&#45;&gt;100111152 -->
<g id="edge43" class="edge">
<title>100111153-&gt;100111152</title>
<path fill="none" stroke="#000000" d="M3682.554,-110.5262C3648.4777,-91.6532 3590.7472,-59.6794 3552.8713,-38.7019"/>
<polygon fill="#000000" stroke="#000000" points="3554.1398,-35.4036 3543.6961,-33.6203 3550.7482,-41.5271 3554.1398,-35.4036"/>
</g>
<!-- 100111154 -->
<g id="node49" class="node">
<title>100111154</title>
<ellipse fill="none" stroke="#000000" cx="3710.4928" cy="-18" rx="54.4855" ry="18"/>
<text text-anchor="middle" x="3710.4928" y="-13.8" font-family="Times,serif" font-size="14.00" fill="#000000">100111154</text>
</g>
<!-- 100111153&#45;&gt;100111154 -->
<g id="edge44" class="edge">
<title>100111153-&gt;100111154</title>
<path fill="none" stroke="#000000" d="M3710.4928,-107.6793C3710.4928,-90.821 3710.4928,-65.5651 3710.4928,-46.147"/>
<polygon fill="#000000" stroke="#000000" points="3713.9929,-46.0501 3710.4928,-36.0502 3706.9929,-46.0502 3713.9929,-46.0501"/>
</g>
<!-- 100111156 -->
<g id="node51" class="node">
<title>100111156</title>
<ellipse fill="none" stroke="#000000" cx="3905.4928" cy="-18" rx="54.4855" ry="18"/>
<text text-anchor="middle" x="3905.4928" y="-13.8" font-family="Times,serif" font-size="14.00" fill="#000000">100111156</text>
</g>
<!-- 100111157&#45;&gt;100111156 -->
<g id="edge46" class="edge">
<title>100111157-&gt;100111156</title>
<path fill="none" stroke="#000000" d="M3905.4928,-107.6793C3905.4928,-90.821 3905.4928,-65.5651 3905.4928,-46.147"/>
<polygon fill="#000000" stroke="#000000" points="3908.9929,-46.0501 3905.4928,-36.0502 3901.9929,-46.0502 3908.9929,-46.0501"/>
</g>
<!-- 100111158 -->
<g id="node52" class="node">
<title>100111158</title>
<ellipse fill="none" stroke="#000000" cx="4100.4928" cy="-18" rx="54.4855" ry="18"/>
<text text-anchor="middle" x="4100.4928" y="-13.8" font-family="Times,serif" font-size="14.00" fill="#000000">100111158</text>
</g>
<!-- 100111157&#45;&gt;100111158 -->
<g id="edge47" class="edge">
<title>100111157-&gt;100111158</title>
<path fill="none" stroke="#000000" d="M3933.4315,-110.5262C3967.5078,-91.6532 4025.2383,-59.6794 4063.1142,-38.7019"/>
<polygon fill="#000000" stroke="#000000" points="4065.2373,-41.5271 4072.2895,-33.6203 4061.8458,-35.4036 4065.2373,-41.5271"/>
</g>
<!-- 100111160 -->
<g id="node54" class="node">
<title>100111160</title>
<ellipse fill="none" stroke="#000000" cx="4295.4928" cy="-18" rx="54.4855" ry="18"/>
<text text-anchor="middle" x="4295.4928" y="-13.8" font-family="Times,serif" font-size="14.00" fill="#000000">100111160</text>
</g>
<!-- 100111161&#45;&gt;100111160 -->
<g id="edge50" class="edge">
<title>100111161-&gt;100111160</title>
<path fill="none" stroke="#000000" d="M4336.4014,-108.166C4328.6347,-91.0475 4316.7963,-64.9548 4307.8496,-45.2355"/>
<polygon fill="#000000" stroke="#000000" points="4310.9152,-43.521 4303.5961,-35.8605 4304.5406,-46.4132 4310.9152,-43.521"/>
</g>
<!-- 100111162 -->
<g id="node55" class="node">
<title>100111162</title>
<ellipse fill="none" stroke="#000000" cx="4490.4928" cy="-18" rx="54.4855" ry="18"/>
<text text-anchor="middle" x="4490.4928" y="-13.8" font-family="Times,serif" font-size="14.00" fill="#000000">100111162</text>
</g>
<!-- 100111161&#45;&gt;100111162 -->
<g id="edge51" class="edge">
<title>100111161-&gt;100111162</title>
<path fill="none" stroke="#000000" d="M4366.9853,-109.3617C4391.9217,-90.9155 4432.2808,-61.0609 4460.0362,-40.5295"/>
<polygon fill="#000000" stroke="#000000" points="4462.2562,-43.2409 4468.2143,-34.48 4458.0933,-37.6132 4462.2562,-43.2409"/>
</g>
<!-- 100111165 -->
<g id="node57" class="node">
<title>100111165</title>
<ellipse fill="none" stroke="#000000" cx="4685.4928" cy="-18" rx="54.4855" ry="18"/>
<text text-anchor="middle" x="4685.4928" y="-13.8" font-family="Times,serif" font-size="14.00" fill="#000000">100111165</text>
</g>
<!-- 100111164&#45;&gt;100111165 -->
<g id="edge53" class="edge">
<title>100111164-&gt;100111165</title>
<path fill="none" stroke="#000000" d="M4644.5841,-108.166C4652.3508,-91.0475 4664.1892,-64.9548 4673.1359,-45.2355"/>
<polygon fill="#000000" stroke="#000000" points="4676.4449,-46.4132 4677.3894,-35.8605 4670.0704,-43.521 4676.4449,-46.4132"/>
</g>
</g>
</svg>